<svg id="Layer_1" data-name="Layer 1" xmlns="http://www.w3.org/2000/svg" viewBox="0 0 499.97 195.22"><path d="M1123.71,337.41l83,13.39,79.07,12.74,4.9,1,.34,1v75.35l2.28,1,23.77,5.89,10.08,2.61,4.87,1V452h-94.66l-.34-.34V388.54l-7.92-.65-.66-.34L1197,384h-2l-.33,68.66-.64.34h-6l-.33-70-4.48-.35-4.81-.65h-2.48l-1.66-.65-23.71-2.62L1140,377.42l-2-.34-.34,75.58-.35.34h-9.61l-30.7-.34V334.12l.34-.34" transform="translate(-832.03 -257.9)" style="fill:#999"/><path d="M995,258v-.1l34.65,6.85,26.82,5.55,32.36,6.54,20.58,4.25,12.43,2.6,16.33,3.26,39.89,8.18,15.69,3.25,8.49,2,3.94,2.29,4.9,3.25,8.49,5.55,8.18,5.24,5.89,3.94,7.53,4.9,5.89,3.93,14.73,9.49,4.89,3.25,5.24,3.26,8.84,5.89,5.23,3.25,3.26,2.29,2.29,1.65-.34.65-7.19-1.3L1230.73,349l-24.86-4.24-19.93-3.26-78.8-13.08-9.14-1.64" transform="translate(-832.03 -257.9)" style="fill:#fff"/><path d="M1174,381.14l-23.53-2.6-10.48-1.3-2-.34-.34,74.76-.34.34H1129V367.63l.34-.34,4.25.34,23.85,2.94L1248.28,382l11.43,1.64,2,.65.34,16v51.33l-.34.34h-24.32l-.34-.34v-63.1l-7.79-.65-.65-.33L1197.71,384H1195l-.33,67.66-.64.34h-6l-.34-69.21-4.59-.34-4.9-.66" transform="translate(-832.03 -257.9)" style="fill:#fff"/><path d="M1175.32,380.77l5.32.35,7,1,.35.67v70.32l-12.65-.35-.35-.34V381.08Z" transform="translate(-832.03 -257.9)" style="fill:#9a9a9a"/><path d="M1229,387.25l7,.65,1,.34.31,63.76h-6.71l-1.6-.34Z" transform="translate(-832.03 -257.9)" style="fill:#9a9a9a"/><path d="M1090.69,331.71a.23.23,0,0,0-.06-.12L1090,331l0,0-7.84-5.21-3.26-2.29-3.61-2.3-5.56-3.93-4-2.61-42.28-28.76-3.94-2.61-11.47-7.84-8.21-5.55-5.28-3.59L991,263.67l-6.19-3.9s0,0,0,0l-1.46-.59a.25.25,0,0,0-.25,0l-6.43,4.49-5.26,3.6-6.55,4.59-5.26,3.59L944.5,285.9l-5.26,3.59-13.12,9.15-6.21,4.24-5.57,3.94-7.21,4.9-4.6,3.25-6.22,4.25-5.56,3.91-7.52,5.23-4.46,3.49-.11.23.34,19.16V417l-.31,24.3a.26.26,0,0,1-.22.25l-14.86,3.88-31.36,7a.28.28,0,0,0,.06.56h90.84a.28.28,0,0,0,.26-.17V453H927V364.28a.27.27,0,0,1,.28-.28h100a.19.19,0,0,1,.13,0l1.11.56a.31.31,0,0,1,.16.25l.31,10.67V453h61l.25-.78c.06,0,.09-.13.72-.19V332.92ZM996,343H968V315h28Z" transform="translate(-832.03 -257.9)" style="fill:#fff"/><polygon points="100.97 106.1 100.97 195.07 100.91 195.1 118.97 195.1 118.97 185.63 118.97 106.44 120.58 106.1 100.97 106.1" style="fill:#9a9a9a"/><polyline points="135.97 56.1 162.59 56.1 135.9 57.1 162.59 56.1 162.98 56.1 142.97 56.77 142.97 84.11 143.29 84.43 145.97 85.1 136.64 85.1 135.97 85.1" style="fill:#9a9a9a"/></svg>